<?xml version="1.0" encoding="UTF-8" standalone="no"?>
<svg
   xmlns:dc="http://purl.org/dc/elements/1.1/"
   xmlns:cc="http://creativecommons.org/ns#"
   xmlns:rdf="http://www.w3.org/1999/02/22-rdf-syntax-ns#"
   xmlns:svg="http://www.w3.org/2000/svg"
   xmlns="http://www.w3.org/2000/svg"
   xmlns:xlink="http://www.w3.org/1999/xlink"
   xmlns:sodipodi="http://sodipodi.sourceforge.net/DTD/sodipodi-0.dtd"
   xmlns:inkscape="http://www.inkscape.org/namespaces/inkscape"
   width="60mm"
   height="60mm"
   viewBox="0 0 60 60"
   version="1.1"
   id="svg3651"
   inkscape:version="1.0.1 (3bc2e813f5, 2020-09-07)"
   sodipodi:docname="dice.svg">
  <defs
     id="defs3645">
    <linearGradient
       inkscape:collect="always"
       id="linearGradient4491">
      <stop
         style="stop-color:#000000;stop-opacity:1"
         offset="0"
         id="stop4487" />
      <stop
         style="stop-color:#1895ab;stop-opacity:1"
         offset="1"
         id="stop4489" />
    </linearGradient>
    <radialGradient
       inkscape:collect="always"
       xlink:href="#linearGradient4491"
       id="radialGradient4493"
       cx="60.105625"
       cy="67.347954"
       fx="60.105625"
       fy="67.347954"
       r="13.404326"
       gradientTransform="matrix(-0.5851099,-1.0327548,0.94395323,-0.53478583,31.700525,165.54369)"
       gradientUnits="userSpaceOnUse" />
  </defs>
  <sodipodi:namedview
     id="base"
     pagecolor="#ffffff"
     bordercolor="#666666"
     borderopacity="1.0"
     inkscape:pageopacity="0.0"
     inkscape:pageshadow="2"
     inkscape:zoom="1.4"
     inkscape:cx="-59.171977"
     inkscape:cy="124.81167"
     inkscape:document-units="mm"
     inkscape:current-layer="layer1"
     inkscape:document-rotation="0"
     showgrid="false"
     inkscape:window-width="1920"
     inkscape:window-height="1017"
     inkscape:window-x="-8"
     inkscape:window-y="-8"
     inkscape:window-maximized="1" />
  <metadata
     id="metadata3648">
    <rdf:RDF>
      <cc:Work
         rdf:about="">
        <dc:format>image/svg+xml</dc:format>
        <dc:type
           rdf:resource="http://purl.org/dc/dcmitype/StillImage" />
        <dc:title></dc:title>
      </cc:Work>
    </rdf:RDF>
  </metadata>
  <g
     inkscape:label="Calque 1"
     inkscape:groupmode="layer"
     id="layer1"
     transform="translate(-70.484044,-74.387958)">
    <path
       sodipodi:type="star"
       style="fill:url(#radialGradient4493);fill-opacity:1;stroke:none"
       id="path4218"
       sodipodi:sides="6"
       sodipodi:cx="59.342258"
       sodipodi:cy="65.767853"
       sodipodi:r1="14.187959"
       sodipodi:r2="12.287133"
       sodipodi:arg1="0.72885473"
       sodipodi:arg2="1.2524535"
       inkscape:flatsided="true"
       inkscape:rounded="0.11"
       inkscape:randomized="0.1"
       d="m 69.054486,74.319418 c -1.066534,1.217618 -10.231857,6.734997 -11.67187,6.316409 -1.440013,-0.418588 -10.196094,-10.096335 -10.694577,-11.631971 -0.498483,-1.535637 -0.04501,-10.271107 0.883303,-11.609777 0.928309,-1.33867 13.455457,-6.095723 14.932876,-5.808304 1.477419,0.287419 9.962928,7.015445 10.694531,8.480188 0.731604,1.464743 -3.077729,13.035837 -4.144263,14.253455 z"
       inkscape:transform-center-x="9.0594253"
       inkscape:transform-center-y="4.7711925"
       transform="matrix(1.8340221,-1.2158138,1.2157019,1.834191,-86.53651,56.160271)" />
    <path
       id="rect4244"
       style="fill:#ffffff;fill-opacity:1;stroke:none;stroke-width:7.76271"
       d="m 71.408955,104.18682 -0.138072,0.57176 32.322457,7.79768 a 1.0136129,1.0137062 0 0 1 0.1327,-0.57367 z M 120.47262,79.365705 105.16816,111.64735 a 1.0136129,1.0137062 0 0 1 0.28088,0.28175 1.0136129,1.0137062 0 0 1 0.11917,0.2498 l 15.45321,-32.598538 z m -14.99425,33.636765 a 1.0136129,1.0137062 0 0 1 -0.005,0.007 l 0.0117,0.003 z m -0.72348,0.48916 11.59372,20.35091 0.51103,-0.29102 -11.57269,-20.313 a 1.0136129,1.0137062 0 0 1 -0.1226,0.0949 1.0136129,1.0137062 0 0 1 -0.40945,0.15819 z" />
    <path
       id="path4286"
       style="fill:#ffffff;fill-opacity:1;stroke:none;stroke-width:7.57501"
       d="m 83.016258,113.17626 a 13.168876,7.506163 22.429327 0 0 -1.826434,2.20674 13.168876,7.506163 22.429327 0 0 9.487512,11.9391 13.168876,7.506163 22.429327 0 0 14.924464,-2.05578 13.168876,7.506163 22.429327 0 0 -9.486563,-11.93973 13.168876,7.506163 22.429327 0 0 -13.098979,-0.15032 z m 1.734779,1.09427 a 11.061479,6.3049619 22.429328 0 1 10.929502,0.17646 11.061479,6.3049619 22.429328 0 1 7.967441,10.02853 11.061479,6.3049619 22.429328 0 1 -12.535324,1.72713 11.061479,6.3049619 22.429328 0 1 -7.969017,-10.02885 11.061479,6.3049619 22.429328 0 1 1.607398,-1.90326 z" />
    <path
       id="path4308"
       style="fill:#ffffff;fill-opacity:1;stroke:none;stroke-width:4.67906"
       d="m 86.984583,115.90914 a 8.1343707,4.6365316 22.429326 0 0 -1.12818,1.36309 8.1343707,4.6365316 22.429326 0 0 5.860403,7.37474 8.1343707,4.6365316 22.429326 0 0 9.218794,-1.26985 8.1343707,4.6365316 22.429326 0 0 -5.85982,-7.37513 8.1343707,4.6365316 22.429326 0 0 -8.091197,-0.0929 z m 1.071569,0.67592 a 6.8326389,3.8945539 22.429327 0 1 6.751116,0.10899 6.8326389,3.8945539 22.429327 0 1 4.921463,6.19459 6.8326389,3.8945539 22.429327 0 1 -7.74303,1.06684 6.8326389,3.8945539 22.429327 0 1 -4.922433,-6.19478 6.8326389,3.8945539 22.429327 0 1 0.992884,-1.17564 z" />
  </g>
</svg>
